<svg xmlns="http://www.w3.org/2000/svg" viewBox="0 0 106.13 106.15"><defs><style>.cls-1{fill:#fff;}.cls-2{fill:#fbfbfb;}.cls-3{fill:#c9c9c9;}.cls-4{fill:#848484;}.cls-5{fill:#030303;}</style></defs><g id="Capa_2" data-name="Capa 2"><g id="Capa_1-2" data-name="Capa 1"><path d="M53.13,106.15a53.08,53.08,0,1,1,53-53.1A53.12,53.12,0,0,1,53.13,106.15Z"/><path class="cls-1" d="M30,73.88a11.39,11.39,0,0,0,5.73,1.61c.77,0,1,.49,1.38.93a5.3,5.3,0,0,0,9.25-2.61,4.17,4.17,0,0,0-.45-3,2.6,2.6,0,0,1-.07-2.55A10.66,10.66,0,0,0,26,60.5a2.66,2.66,0,0,1-.59,1.14A12.73,12.73,0,0,1,24.8,58,48,48,0,0,1,49.31,11.1a5.62,5.62,0,0,1,2.77-.76c13.84-.1,25.18,5.19,34.11,15.73a2.93,2.93,0,0,1,.29.43c-.18.39-.59.38-.92.49a7.92,7.92,0,0,0,3.22,15.42,7.46,7.46,0,0,0,.81-.1c.48-.11.62.12.75.57.8,2.59,1.5,3.14,4.28,3.25.77,0,.71.52.78,1a41.86,41.86,0,0,1,.25,9.75,42.41,42.41,0,0,1-8.21,21.63c-.31.41-.54.92-1,1.17-.4-.39-.36-.92-.52-1.37A8,8,0,0,0,77.73,73a7.89,7.89,0,0,0-7.14,6.53c-.15.79-.25,1.46-1.19,1.9a2.38,2.38,0,0,0-1,3.11,2.43,2.43,0,0,0,2.71,1.61,1.85,1.85,0,0,1,2,.65,7.36,7.36,0,0,0,1.59,1.12c.56.32,1.17.53,1.87.84a38.62,38.62,0,0,1-8.6,4.4,42.4,42.4,0,0,1-16.28,2.63,3.81,3.81,0,0,1-1.72-.4A48.08,48.08,0,0,1,29.67,74.62a1.4,1.4,0,0,1-.09-.31C29.51,73.93,29.64,73.77,30,73.88Z"/><path class="cls-2" d="M80.67,80.84a2.3,2.3,0,0,1-2.18,2.36,2.26,2.26,0,0,1-2.39-2.12,2.32,2.32,0,0,1,2.24-2.47A2.36,2.36,0,0,1,80.67,80.84Z"/><path class="cls-3" d="M30,73.88l-.45.43c-.28-.14-.32-.43-.41-.69a.42.42,0,0,1,.52-.07C29.85,73.61,30,73.68,30,73.88Z"/><path class="cls-4" d="M29.69,73.55l-.52.07c-.25-.12-.27-.37-.06-.44S29.58,73.29,29.69,73.55Z"/><path d="M47.19,40.74C41,40.71,36.84,37,36,31.7a10.46,10.46,0,0,1,19.64-6.22,4.07,4.07,0,0,1,.39.88c.17.6.5.75,1.09.62a3.2,3.2,0,0,1,2.21.28,3.4,3.4,0,0,1,1.79,3.81,3.22,3.22,0,0,1-3.62,2.56c-1-.16-1.28.2-1.65,1C53.92,38.62,50.66,40.58,47.19,40.74Z"/><path d="M67.18,61A7.61,7.61,0,1,1,75,53.58,7.52,7.52,0,0,1,67.18,61Z"/><path class="cls-5" d="M86.29,60a2.61,2.61,0,0,1-2.78,2.56A2.54,2.54,0,0,1,81,59.9a2.63,2.63,0,1,1,5.25.12Z"/></g></g></svg>