<svg xmlns="http://www.w3.org/2000/svg" viewBox="0 0 106.12 106.13"><defs><style>.cls-1{fill:#fff;}.cls-2{fill:#bababa;}</style></defs><g id="Capa_2" data-name="Capa 2"><g id="Capa_1-2" data-name="Capa 1"><path d="M53,106.13A53.07,53.07,0,1,1,106.12,53,53.11,53.11,0,0,1,53,106.13Z"/><path class="cls-1" d="M16.28,73.63a5.41,5.41,0,0,0,4.85,1.74,5.22,5.22,0,0,0,3.92-7.54,2.2,2.2,0,0,1-.19-2,10.2,10.2,0,0,0-2.28-11.29c-3.07-3.18-6.87-3.92-11.08-2.68a2,2,0,0,1-1.14.2A41.8,41.8,0,0,1,15.85,32a3.61,3.61,0,0,1,.93,1.22,10.15,10.15,0,0,0,9.65,4.59A10,10,0,0,0,35,31.9c.38-.76.54-1.29,1.7-1.08a3.36,3.36,0,1,0,.22-6.69,1.65,1.65,0,0,1-2-1.21,10,10,0,0,0-5.38-5.14c-.13-.51.3-.57.53-.72a42.07,42.07,0,0,1,21.64-6.71c1.39,0,1.41,0,1.41,1.23V45.46c0,.16,0,.32-.07.67-1.26-1.13-2.37-2.31-4-2.79a8,8,0,0,0-4.64-.08A7.44,7.44,0,0,0,40.46,46a7.63,7.63,0,0,0,1.08,10.3c3.33,2.94,7.46,2.52,11.28-1.16.41.18.23.56.23.85,0,4.77,0,9.55,0,14.33a2,2,0,0,1-.75,1.82,7.31,7.31,0,0,0-2.61,4.74,1.84,1.84,0,0,1-1,1.63,2.41,2.41,0,0,0-1.18,3,2.67,2.67,0,0,0,2.94,1.79,2.36,2.36,0,0,1,2.61,2.23c0,2.94,0,5.87,0,8.8,0,1.48.09,1.46-1.41,1.4A42.73,42.73,0,0,1,16.75,75.6c-.32-.5-.58-1-.86-1.56C15.81,73.69,16,73.58,16.28,73.63Z"/><path class="cls-2" d="M16.28,73.63l-.39.41a1.74,1.74,0,0,1-.67-1.32C15.94,72.63,16,73.22,16.28,73.63Z"/></g></g></svg>