<svg xmlns="http://www.w3.org/2000/svg" viewBox="0 0 105.93 107.55"><defs><style>.cls-1{fill:#fff;}.cls-2{fill:#b8b8b8;}.cls-3{fill:#c1c1c1;}.cls-4{fill:#e5e5e5;}.cls-5{fill:#dedede;}.cls-6{fill:#dfdfdf;}.cls-7{fill:#dcdcdc;}.cls-8{fill:#030303;}</style></defs><g id="Capa_2" data-name="Capa 2"><g id="Capa_1-2" data-name="Capa 1"><path class="cls-1" d="M56.4.37h49.53V50.22a.32.32,0,0,1-.45,0c-.67-2.46-.69-5-1.25-7.51A52.71,52.71,0,0,0,92.58,19.35,52.08,52.08,0,0,0,59.91,1.54c-1.17-.18-2.4-.06-3.47-.72A.32.32,0,0,1,56.4.37Z"/><path class="cls-2" d="M50.5,0l4.33,0c.38.37.42.65.14.85a8.11,8.11,0,0,1-4.63,0C50.05.67,50.11.38,50.5,0Z"/><path class="cls-3" d="M105.93,52.19v3.59a.35.35,0,0,1-.49-.12,4.61,4.61,0,0,1,0-3.35A.36.36,0,0,1,105.93,52.19Z"/><path class="cls-4" d="M105.93,52.19l-.14,0-.13,0a1,1,0,0,1,0-1.62,1.31,1.31,0,0,1,.28,0Z"/><path class="cls-5" d="M50.23.37a2.62,2.62,0,0,0,0,.28.86.86,0,0,1-1.29,0V.37Z"/><path class="cls-6" d="M55.11.65a2.62,2.62,0,0,0,0-.28h1.3c0,.1,0,.21,0,.31A.84.84,0,0,1,55.11.65Z"/><path class="cls-7" d="M105.66,55.78a.82.82,0,0,0,.27,0v1.3l-.14,0h-.13A.82.82,0,0,1,105.66,55.78Z"/><path d="M105.93,56.16v1.26C104.38,77.3,94.85,92.15,77.31,101.5a52.47,52.47,0,0,1-60.22-8.08A51.74,51.74,0,0,1,.23,59.35,53,53,0,0,1,42.1,2.46c2.34-.5,4.72-.7,7.08-1a3,3,0,0,0,1.29,0h4.91a3.16,3.16,0,0,0,1.3,0,72,72,0,0,1,11.63,2.2,53.15,53.15,0,0,1,36.33,38.68,50.23,50.23,0,0,1,1.28,8.79l0,2.29A24,24,0,0,0,105.93,56.16Z"/><path class="cls-1" d="M85.48,26.76a8.41,8.41,0,0,0-6,4.75,7.68,7.68,0,0,0-.39,5.25c1.14,4.18,4.49,6.12,9.78,5.71.8,3.16,2.24,4.38,5.9,3.58C97,59.34,93.87,71.18,85.15,82c-.05-.76-.07-1.15-.1-1.54a8,8,0,0,0-7.49-7.3,7.9,7.9,0,0,0-8.19,6.46,2.34,2.34,0,0,1-1.27,2,2.39,2.39,0,0,0-1,3,2.47,2.47,0,0,0,2.8,1.72,1.68,1.68,0,0,1,1.82.55,8.26,8.26,0,0,0,5.07,2.21c-.06.46-.41.56-.67.73a42.8,42.8,0,0,1-21.9,7c-.27,0-.54,0-.81,0-.5,0-.67-.23-.66-.68V95q0-27.87,0-55.72a4,4,0,0,1,.89-2.83,5.83,5.83,0,0,0,1-1.83c.26-.74.54-1,1.4-.78a3.09,3.09,0,0,0,3.32-1.56,3.15,3.15,0,0,0,0-3.67,3.07,3.07,0,0,0-3.21-1.48,1.15,1.15,0,0,1-1.53-.92,3,3,0,0,0-.7-1.28c-1.15-1.15-1.2-2.55-1.17-4,.06-2.82,0-5.65,0-8.47,0-1.11,0-1.12,1-1.08a42.41,42.41,0,0,1,30.53,14c.33.36.64.74,1,1.11A2.35,2.35,0,0,1,85.48,26.76Z"/><path d="M66.12,46a7.55,7.55,0,0,1,7.66,7.61,7.62,7.62,0,0,1-15.24.08A7.57,7.57,0,0,1,66.12,46Z"/><path class="cls-8" d="M82.36,57.45A2.71,2.71,0,0,1,85.06,60a2.63,2.63,0,0,1-5.26.28A2.67,2.67,0,0,1,82.36,57.45Z"/></g></g></svg>