<svg xmlns="http://www.w3.org/2000/svg" viewBox="0 0 106.06 106.12"><defs><style>.cls-1{fill:#fff;}.cls-2{fill:#030303;}.cls-3{fill:#fefefe;}</style></defs><g id="Capa_2" data-name="Capa 2"><g id="Capa_1-2" data-name="Capa 1"><path d="M0,53a53,53,0,1,1,53.09,53.1A53,53,0,0,1,0,53Z"/><path class="cls-1" d="M86.4,79.61c-.22-.62-.36-1.07-.53-1.51a7.9,7.9,0,0,0-15.12,1.13c-.2,1-.28,1.79-1.4,2.31a2.28,2.28,0,0,0-.84,3,2.39,2.39,0,0,0,2.71,1.6,1.76,1.76,0,0,1,2,.65,9.83,9.83,0,0,0,3.23,1.88C66,96.15,49.06,98.79,34.24,91.47A42.62,42.62,0,0,1,10.33,53a15.88,15.88,0,0,0,4,.16,7.51,7.51,0,0,0,.17-14.73c-.26-.05-.53-.08-.8-.11-.51-.05-.66-.31-.46-.77.5-1.14.94-2.32,1.52-3.42,6.73-12.95,17.27-21,31.67-23.23s26.7,2,37.05,12.17a25.46,25.46,0,0,1,3.12,3.59,8.28,8.28,0,0,0-6,5.25A7.72,7.72,0,0,0,80.55,37c1.28,3.9,4.48,5.66,9.63,5.31.36.25.23.68.33,1a3.56,3.56,0,0,0,3.55,2.8c1.07,0,1.2.38,1.32,1.26A42.52,42.52,0,0,1,92.26,70,36.85,36.85,0,0,1,86.4,79.61Z"/><path d="M46.54,65.22a9.28,9.28,0,0,1-.71,3.45,1.82,1.82,0,0,0,.05,1.79,5.22,5.22,0,0,1-1.66,6.91,5.16,5.16,0,0,1-7-1.07,2.34,2.34,0,0,0-2-.82A10.66,10.66,0,1,1,46.54,65.22Z"/><path d="M46.43,19.82A10.35,10.35,0,0,1,56,26c.34.73.6,1.09,1.52.94a3.34,3.34,0,0,1,3.82,3.43,3.29,3.29,0,0,1-3.84,3.24c-1-.13-1.16.25-1.5.94a10.07,10.07,0,0,1-9.85,6.15,10.43,10.43,0,0,1-2.25-20.55A9.67,9.67,0,0,1,46.43,19.82Z"/><path d="M75.11,53.39a7.63,7.63,0,1,1-7.65-7.61A7.59,7.59,0,0,1,75.11,53.39Z"/><path class="cls-2" d="M83.73,62.58a2.64,2.64,0,0,1,.06-5.27,2.68,2.68,0,0,1,2.62,2.59A2.64,2.64,0,0,1,83.73,62.58Z"/><path class="cls-3" d="M46.36,26.91a3.42,3.42,0,0,1,3.51,3.31,3.51,3.51,0,0,1-3.36,3.5A3.43,3.43,0,0,1,43,30.36,3.32,3.32,0,0,1,46.36,26.91Z"/></g></g></svg>