<svg xmlns="http://www.w3.org/2000/svg" viewBox="0 0 106.24 106.14"><defs><style>.cls-1{fill:#c4c4c4;}.cls-2{fill:#ededed;}.cls-3{fill:#ebebeb;}.cls-4{fill:#fff;}.cls-5{fill:#030303;}.cls-6{fill:#fefefe;}</style></defs><g id="Capa_2" data-name="Capa 2"><g id="Capa_1-2" data-name="Capa 1"><path class="cls-1" d="M106.24,50.78v4.89a.36.36,0,0,1-.5-.14,8.07,8.07,0,0,1,0-4.62A.35.35,0,0,1,106.24,50.78Z"/><path class="cls-2" d="M106,55.68a1.29,1.29,0,0,0,.28,0V57H106A.82.82,0,0,1,106,55.68Z"/><path class="cls-3" d="M106.24,50.78l-.13,0-.14,0a.66.66,0,1,1,.27-1.29Z"/><path d="M106,49.47v1.3c0,1.63,0,3.27,0,4.91V57A53,53,0,0,1,6.15,77.81,52,52,0,0,1,.09,50.18,53.07,53.07,0,0,1,102.88,34.72,49.9,49.9,0,0,1,106,49.47Z"/><path class="cls-4" d="M49.45,95.64a7.77,7.77,0,0,0-1-6.93,7.31,7.31,0,0,0-4.18-2.93c-4-1.1-7.15.8-9.51,5.78C7.92,79.28,1.54,42.6,24.07,21.72a8.4,8.4,0,0,0,5.52,3.93A7.89,7.89,0,0,0,34.51,25c3.41-1.63,4.85-4.7,4.33-9.34.49-.13,1-.24,1.5-.42a3.25,3.25,0,0,0,2.29-2.72c.12-.93.55-1.1,1.32-1.27a45,45,0,0,1,12.3-.88,3.85,3.85,0,0,1,1.69.53A49.73,49.73,0,0,1,71,21.31c.71.79.23,1.2-.15,1.79a7.9,7.9,0,0,0,3.9,11.81,5,5,0,0,0,1.25.33,2,2,0,0,1,2,1.29,1.62,1.62,0,0,0,1.42,1c1.08,0,1.25.78,1.49,1.58a48,48,0,0,1-15.8,51.29A55.14,55.14,0,0,1,58.24,95a5.27,5.27,0,0,1-2.47.71A56,56,0,0,1,49.45,95.64Z"/><path d="M50.75,70.11A10.62,10.62,0,0,1,65,60.05,2.53,2.53,0,0,0,67.26,60a5.24,5.24,0,0,1,5.66,8.74A2.32,2.32,0,0,0,72,70.62a10.64,10.64,0,0,1-21.26-.51Z"/><path d="M26.9,70a10.46,10.46,0,0,1-4.63-19.86c.29-.14.59-.26.9-.38a.57.57,0,0,0,.4-.75,3.87,3.87,0,0,1-.1-1,3.4,3.4,0,0,1,3.45-3.38,3.34,3.34,0,0,1,3.32,3.64c-.2,1.18.28,1.42,1.13,1.81A10.44,10.44,0,0,1,26.9,70Z"/><path d="M49.92,30.84a7.63,7.63,0,0,1,7.7,7.6,7.72,7.72,0,0,1-7.69,7.65,7.6,7.6,0,0,1-7.57-7.55A7.52,7.52,0,0,1,49.92,30.84Z"/><path class="cls-5" d="M59.16,22.11a2.61,2.61,0,0,1-2.61,2.7,2.64,2.64,0,0,1-2.69-2.63,2.72,2.72,0,0,1,2.54-2.65A2.68,2.68,0,0,1,59.16,22.11Z"/><path class="cls-6" d="M26.86,62.92a3.39,3.39,0,0,1-3.4-3.41,3.45,3.45,0,0,1,3.41-3.43,3.54,3.54,0,0,1,3.43,3.44A3.45,3.45,0,0,1,26.86,62.92Z"/></g></g></svg>