<svg xmlns="http://www.w3.org/2000/svg" viewBox="0 0 106.26 107.11"><defs><style>.cls-1{fill:#b8b8b8;}.cls-2{fill:#dedede;}.cls-3{fill:#d6d6d6;}</style></defs><g id="Capa_2" data-name="Capa 2"><g id="Capa_1-2" data-name="Capa 1"><path class="cls-1" d="M51,0l4.32,0c.38.37.43.65.14.85a8.07,8.07,0,0,1-4.62,0C50.55.67,50.6.38,51,0Z"/><path class="cls-2" d="M50.71.37a2.62,2.62,0,0,0,0,.28.85.85,0,0,1-1.3,0,1.71,1.71,0,0,0,0-.32Z"/><path class="cls-3" d="M55.6.66V.37h1c0,.1,0,.2,0,.3A.65.65,0,0,1,55.6.66Z"/><path d="M55.6,1h1A56.87,56.87,0,0,1,70.71,4c15.8,5.84,26.84,16.59,32.46,32.47A52.73,52.73,0,0,1,78.7,100.53a50.81,50.81,0,0,1-31.89,6.12c-17.69-2.32-31.13-11.32-39.9-26.8C-.64,66.52-2,52.28,2.77,37.71c5.21-16,15.9-27,31.46-33.23A48.67,48.67,0,0,1,47.31,1.31c.7-.07,1.4-.18,2.09-.28a3,3,0,0,0,1.3,0Z"/></g></g></svg>